<?xml version="1.0" encoding="iso-8859-1"?>
<!-- Generator: Adobe Illustrator 19.0.0, SVG Export Plug-In . SVG Version: 6.00 Build 0)  -->
<svg version="1.1" id="Capa_1" xmlns="http://www.w3.org/2000/svg" xmlns:xlink="http://www.w3.org/1999/xlink" x="0px" y="0px"
	 viewBox="0 0 512 512" style="enable-background:new 0 0 512 512;" xml:space="preserve">
<path style="fill:#D3D3D8;" d="M92.772,225c4.005-27.198,18.001-52.332,40.225-69.009l11.997-8.994l-17.988-23.994l-11.997,8.994
	C85.216,154.332,66.045,188.326,61.89,225H92.772z"/>
<path style="fill:#BABAC0;" d="M419.228,225h30.883c-4.155-36.674-23.326-70.668-53.119-93.003l-11.997-8.994l-17.988,23.994
	l11.997,8.994C401.226,172.668,415.223,197.802,419.228,225z"/>
<rect x="61" y="405" style="fill:#B34F03;" width="30" height="92"/>
<rect x="76" y="405" style="fill:#913F02;" width="15" height="92"/>
<path style="fill:#A8D32A;" d="M106,330c-11.7,0-21.899,4.501-30,11.7c-8.101-7.2-18.3-11.7-30-11.7H0v45c0,24.901,21.099,45,46,45
	h30c15,0,30.3,0,30.3,0c24.901-0.3,44.7-20.099,44.7-45v-45H106z"/>
<polygon style="fill:#BABAC0;" points="451,120 376,120 376,90 421,90 421,15 451,15 "/>
<polygon style="fill:#D3D3D8;" points="136,120 61,120 61,15 91,15 91,90 136,90 "/>
<path style="fill:#53433F;" d="M301,135v30c0,24.901-20.099,45-45,45s-45-20.099-45-45v-30H301z"/>
<g>
	<rect x="241" y="240" style="fill:#9ED0FF;" width="30" height="60"/>
	
		<rect x="181" y="209.996" transform="matrix(-0.7071 -0.7071 0.7071 -0.7071 164.8904 548.2846)" style="fill:#9ED0FF;" width="29.997" height="59.993"/>
</g>
<rect x="286.002" y="224.996" transform="matrix(-0.7071 -0.7071 0.7071 -0.7071 369.7416 633.1408)" style="fill:#73BCFF;" width="59.993" height="29.997"/>
<path style="fill:#93BF00;" d="M151,330v45c0,24.901-19.799,44.7-44.7,45c0,0-15.3,0-30.3,0v-78.3c8.101-7.2,18.3-11.7,30-11.7H151z
	"/>
<rect x="241" y="405" style="fill:#B34F03;" width="30" height="92"/>
<rect x="256" y="405" style="fill:#913F02;" width="15" height="92"/>
<path style="fill:#A8D32A;" d="M286,330c-11.7,0-21.899,4.501-30,11.7c-8.101-7.2-18.3-11.7-30-11.7h-45v45
	c0,24.901,20.099,45,45,45h30c15,0,30.3,0,30.3,0c24.901-0.3,44.7-20.099,44.7-45v-45H286z"/>
<path style="fill:#93BF00;" d="M331,330v45c0,24.901-19.799,44.7-44.7,45c0,0-15.3,0-30.3,0v-78.3c8.101-7.2,18.3-11.7,30-11.7H331z
	"/>
<rect x="421" y="405" style="fill:#B34F03;" width="30" height="92"/>
<rect x="436" y="405" style="fill:#913F02;" width="15" height="92"/>
<path style="fill:#A8D32A;" d="M466,330c-11.7,0-21.899,4.501-30,11.7c-8.101-7.2-18.3-11.7-30-11.7h-45v45
	c0,24.901,20.099,45,45,45h30c15,0,30.3,0,30.3,0c24.901-0.3,45.7-20.099,45.7-45v-45H466z"/>
<path style="fill:#93BF00;" d="M512,330v45c0,24.901-20.799,44.7-45.7,45c0,0-15.3,0-30.3,0v-78.3c8.101-7.2,18.3-11.7,30-11.7H512z
	"/>
<rect y="482" style="fill:#B34F03;" width="512" height="30"/>
<rect x="256" y="482" style="fill:#913F02;" width="256" height="30"/>
<path style="fill:#3E322E;" d="M301,135v30c0,24.901-20.099,45-45,45v-75H301z"/>
<rect x="256" y="240" style="fill:#73BCFF;" width="15" height="60"/>
<path style="fill:#EDE9E8;" d="M316,30H196c-41.4,0-75,33.6-75,75v45h270v-45C391,63.6,357.4,30,316,30z"/>
<path style="fill:#DFD7D5;" d="M391,105v45H256V30h60C357.4,30,391,63.6,391,105z"/>
<rect x="376" style="fill:#3E322E;" width="120" height="30"/>
<rect x="16" style="fill:#53433F;" width="120" height="30"/>
<rect x="391" y="210" style="fill:#3E322E;" width="90" height="30"/>
<rect x="31" y="210" style="fill:#53433F;" width="90" height="30"/>
<g>
</g>
<g>
</g>
<g>
</g>
<g>
</g>
<g>
</g>
<g>
</g>
<g>
</g>
<g>
</g>
<g>
</g>
<g>
</g>
<g>
</g>
<g>
</g>
<g>
</g>
<g>
</g>
<g>
</g>
</svg>
