<svg height="464pt" viewBox="0 -11 464 464" width="464pt" xmlns="http://www.w3.org/2000/svg"><path d="m348 41.601562h-24l-21.601562-28.800781c-2.648438-3.535156-1.933594-8.550781 1.601562-11.199219 3.535156-2.652343 8.550781-1.9375 11.199219 1.597657l16.800781 22.402343h8l16.800781-22.402343c2.648438-3.535157 7.664063-4.25 11.199219-1.597657 3.535156 2.648438 4.25 7.664063 1.601562 11.199219zm0 0" fill="#57565c"/><path d="m368 57.601562c0 35.34375-28.652344 64-64 64s-64-28.65625-64-64zm0 0" fill="#ff6243"/><path d="m432 57.601562c0 35.34375-28.652344 64-64 64s-64-28.65625-64-64zm0 0" fill="#ff6243"/><path d="m208 217.601562h256v48h-256zm0 0" fill="#c0ab91"/><path d="m224 265.601562h224v176h-224zm0 0" fill="#a78966"/><path d="m144 169.601562 24 40-24 40h-48l-24-40 24-40zm0 0" fill="#ffaf46"/><path d="m72 209.601562 24 40-24 40h-48l-24-40 24-40zm0 0" fill="#ffd422"/><path d="m144 249.601562 24 40-24 40h-48l-24-40 24-40zm0 0" fill="#ff9811"/><path d="m72 129.601562 24 40-24 40h-48l-24-40 24-40zm0 0" fill="#ff9811"/><path d="m144 89.601562 24 40-24 40h-48l-24-40 24-40zm0 0" fill="#ffd422"/><path d="m336 49.601562c17.671875 0 32 14.324219 32 32v32c0 17.671876-14.328125 32-32 32s-32-14.328124-32-32v-32c0-17.675781 14.328125-32 32-32zm0 0" fill="#ff9811"/><path d="m360 41.601562c0 13.253907-10.746094 24-24 24s-24-10.746093-24-24c0-13.257812 10.746094-24 24-24s24 10.742188 24 24zm0 0" fill="#ffda44"/><path d="m304 97.601562h64v16h-64zm0 0" fill="#3e3d42"/><path d="m296 297.601562h80c4.417969 0 8 3.582032 8 8 0 4.417969-3.582031 8-8 8h-80c-4.417969 0-8-3.582031-8-8 0-4.417968 3.582031-8 8-8zm0 0" fill="#806749"/><path d="m236 225.601562h56c6.628906 0 12 5.371094 12 12 0 6.625-5.371094 12-12 12h-56c-6.628906 0-12-5.375-12-12 0-6.628906 5.371094-12 12-12zm0 0" fill="#a78966"/></svg>