<?xml version="1.0" encoding="UTF-8"?>
<svg xmlns="http://www.w3.org/2000/svg" xmlns:xlink="http://www.w3.org/1999/xlink" width="512" height="512" viewBox="0 0 60 60" version="1.1"><!-- Generator: Sketch 51.3 (57544) - http://www.bohemiancoding.com/sketch --><title>005 - Life Saver</title><desc>Created with Sketch.</desc><defs/><g id="Page-1" stroke="none" stroke-width="1" fill="none" fill-rule="evenodd"><g id="005---Life-Saver" transform="translate(-1.000000, -1.000000)" fill-rule="nonzero"><path d="M5.251,30 C4.93111903,30.0002772 4.63040984,29.8475066 4.442,29.589 C0.458737494,24.1135242 -0.114776021,16.8659103 2.95774117,10.8321011 C6.03025836,4.79829193 12.2289429,0.999195203 19,1 C22.8062432,0.989810064 26.5162209,2.19575427 29.589,4.442 C29.8836104,4.65021325 30.043234,5.00096944 30.006711,5.35987627 C29.970188,5.71878311 29.743181,6.03019509 29.4126678,6.17479467 C29.0821545,6.31939424 28.6993784,6.27476247 28.411,6.058 C22.0434909,1.42023647 13.2476392,2.10726009 7.67744962,7.67744962 C2.10726009,13.2476392 1.42023647,22.0434909 6.058,28.411 C6.27952642,28.7149432 6.31177805,29.1174793 6.14147147,29.4528165 C5.9711649,29.7881538 5.62710532,29.999574 5.251,30 Z" id="Shape" fill="#7F8C8D"/><path d="M56.749,30 C56.3727147,29.9999499 56.0283113,29.788674 55.8577556,29.4532618 C55.6871998,29.1178496 55.719368,28.7150886 55.941,28.411 C60.5774927,22.0436319 59.8901296,13.2489577 54.3206743,7.6792532 C48.7512189,2.10954868 39.9565756,1.42179218 33.589,6.058 C33.142653,6.37345175 32.5257246,6.27209957 32.203762,5.83042596 C31.8817994,5.38875235 31.9740948,4.77040416 32.411,4.442 C37.8864758,0.458737494 45.1340897,-0.114776021 51.1678989,2.95774117 C57.2017081,6.03025836 61.0008048,12.2289429 61,19 C61.0100607,22.8060654 59.8045117,26.5159051 57.559,29.589 C57.3703828,29.847792 57.0692333,30.0005975 56.749,30 Z" id="Shape" fill="#7F8C8D"/><path d="M19,61 C12.2289429,61.0008048 6.03025836,57.2017081 2.95774117,51.1678989 C-0.114776021,45.1340897 0.458737494,37.8864758 4.442,32.411 C4.65021325,32.1163896 5.00096944,31.956766 5.35987627,31.993289 C5.71878311,32.029812 6.03019509,32.256819 6.17479467,32.5873322 C6.31939424,32.9178455 6.27476247,33.3006216 6.058,33.589 C1.42023647,39.9565091 2.10726009,48.7523608 7.67744962,54.3225504 C13.2476392,59.8927399 22.0434909,60.5797635 28.411,55.942 C28.857347,55.6265482 29.4742754,55.7279004 29.796238,56.169574 C30.1182006,56.6112476 30.0259052,57.2295958 29.589,57.558 C26.5162209,59.8042457 22.8062432,61.0101899 19,61 Z" id="Shape" fill="#7F8C8D"/><path d="M43,61 C39.1937568,61.0101899 35.4837791,59.8042457 32.411,57.558 C32.1163896,57.3497867 31.956766,56.9990306 31.993289,56.6401237 C32.029812,56.2812169 32.256819,55.9698049 32.5873322,55.8252053 C32.9178455,55.6806058 33.3006216,55.7252375 33.589,55.942 C39.9565756,60.5782078 48.7512189,59.8904513 54.3206743,54.3207468 C59.8901296,48.7510423 60.5774927,39.9563681 55.941,33.589 C55.6157043,33.1422016 55.7142016,32.5162957 56.161,32.191 C56.6077984,31.8657043 57.2337043,31.9642016 57.559,32.411 C61.5423684,37.8866213 62.1157985,45.1344603 59.0430321,51.1683446 C55.9702656,57.2022288 49.771237,61.001181 43,61 Z" id="Shape" fill="#7F8C8D"/><path d="M33,8 L33,4 C33,2.8954305 32.1045695,2 31,2 C29.8954305,2 29,2.8954305 29,4 L29,8" id="Shape" fill="#E64C3C"/><path d="M33,54 L33,58 C33,59.1045695 32.1045695,60 31,60 C29.8954305,60 29,59.1045695 29,58 L29,54" id="Shape" fill="#E64C3C"/><path d="M54,33 L58,33 C59.1045695,33 60,32.1045695 60,31 C60,29.8954305 59.1045695,29 58,29 L54,29" id="Shape" fill="#E64C3C"/><path d="M8,33 L4,33 C2.8954305,33 2,32.1045695 2,31 C2,29.8954305 2.8954305,29 4,29 L8,29" id="Shape" fill="#E64C3C"/><path d="M22.01,15.42 C16.4351647,18.6269472 12.9990917,24.5685696 13,31 L5.99999135,31 C5.99258051,22.0665399 10.7595736,13.8101079 18.5,9.35 L22.01,15.42 Z" id="Shape" fill="#ECF0F1"/><path d="M43.5,9.35 L39.99,15.42 C34.4309772,12.1932567 27.5690228,12.1932567 22.01,15.42 L18.5,9.35 C26.2350269,4.88418013 35.7649731,4.88418013 43.5,9.35 Z" id="Shape" fill="#FF5364"/><path d="M56.0000086,31 L49,31 C49.0009083,24.5685696 45.5648353,18.6269472 39.99,15.42 L43.5,9.35 C51.2404264,13.8101079 56.0074195,22.0665399 56.0000086,31 Z" id="Shape" fill="#ECF0F1"/><path d="M56.0000086,31 C56.0074195,39.9334601 51.2404264,48.1898921 43.5,52.65 L39.99,46.58 C45.5648353,43.3730528 49.0009083,37.4314304 49,31 L56.0000086,31 Z" id="Shape" fill="#FF5364"/><path d="M43.5,52.65 C35.7649731,57.1158199 26.2350269,57.1158199 18.5,52.65 L22.01,46.58 C27.5690228,49.8067433 34.4309772,49.8067433 39.99,46.58 L43.5,52.65 Z" id="Shape" fill="#ECF0F1"/><path d="M22.01,46.58 L18.5,52.65 C10.7595736,48.1898921 5.99258051,39.9334601 5.99999135,31 L13,31 C12.9990917,37.4314304 16.4351647,43.3730528 22.01,46.58 Z" id="Shape" fill="#FF5364"/><path d="M49.0000002,31 L46,31 C45.998421,25.641539 43.1398419,20.6904801 38.5,18.01 L39.99,15.42 C45.5648353,18.6269472 49.0009083,24.5685696 49.0000002,31 Z" id="Shape" fill="#D1D4D1"/><path d="M49.0000002,31 C49.0009083,37.4314304 45.5648353,43.3730528 39.99,46.58 L38.5,43.99 C43.1398419,41.3095199 45.998421,36.358461 46,31 L49.0000002,31 Z" id="Shape" fill="#DF4D60"/><path d="M39.99,46.58 C34.4309772,49.8067433 27.5690228,49.8067433 22.01,46.58 L23.5,43.99 C28.1410162,46.6694919 33.8589838,46.6694919 38.5,43.99 L39.99,46.58 Z" id="Shape" fill="#D1D4D1"/><path d="M23.5,43.99 L22.01,46.58 C16.4351647,43.3730528 12.9990917,37.4314304 12.9999998,31 L16,31 C16.001579,36.358461 18.8601581,41.3095199 23.5,43.99 Z" id="Shape" fill="#DF4D60"/><path d="M23.5,18.01 C18.8601581,20.6904801 16.001579,25.641539 16,31 L12.9999998,31 C12.9990917,24.5685696 16.4351647,18.6269472 22.01,15.42 L23.5,18.01 Z" id="Shape" fill="#D1D4D1"/><path d="M39.99,15.42 L38.5,18.01 C33.8589838,15.3305081 28.1410162,15.3305081 23.5,18.01 L22.01,15.42 C27.5690228,12.1932567 34.4309772,12.1932567 39.99,15.42 Z" id="Shape" fill="#DF4D60"/></g></g></svg>
