<?xml version="1.0"?>
<svg xmlns="http://www.w3.org/2000/svg" viewBox="0 0 64 64" width="512" height="512"><g id="Check_List" data-name="Check List"><path d="M27,9a3,3,0,1,1,3-3A3,3,0,0,1,27,9Zm0-4a1,1,0,1,0,1,1A1,1,0,0,0,27,5Z" style="fill:#787680"/><rect x="6" y="9" width="42" height="52" rx="4" style="fill:#754c29"/><path d="M42,13H12a1,1,0,0,0-1,1V56a1,1,0,0,0,1,1H43V14A1,1,0,0,0,42,13Z" style="fill:#e6e7e8"/><path d="M58,46A12,12,0,0,1,47.97,57.84,11.64,11.64,0,0,1,46,58a12,12,0,0,1-3-23.62A11.858,11.858,0,0,1,46,34a11.522,11.522,0,0,1,1.96.16A11.994,11.994,0,0,1,58,46Z" style="fill:#ffd422"/><path d="M53,44v7a1,1,0,0,1-1,1H40a1,1,0,0,1-1-1V44Z" style="fill:#a97c50"/><rect x="17" y="36" width="8" height="8" style="fill:#78b9eb"/><polygon points="25 24 25 27 25 30 17 30 17 22 23 22 25 22 25 24" style="fill:#78b9eb"/><path d="M40,13v1a2.006,2.006,0,0,1-2,2H16a2.006,2.006,0,0,1-2-2V8H40v5Z" style="fill:#ffa733"/><polygon points="48 44 48 46 44 46 44 44 44 40 48 40 48 44" style="fill:#b38c62"/><path d="M44,40v4H39V41a1,1,0,0,1,1-1Z" style="fill:#c49a6c"/><path d="M53,41v3H48V40h4A1,1,0,0,1,53,41Z" style="fill:#c49a6c"/><path d="M22,28a1,1,0,0,1-.707-.293l-3-3,1.414-1.414L22,25.586l4.293-4.293,1.414,1.414-5,5A1,1,0,0,1,22,28Z" style="fill:#ff6243"/><rect x="30" y="28" width="8" height="2" style="fill:#898890"/><rect x="30" y="24" width="8" height="2" style="fill:#898890"/></g></svg>
