<?xml version="1.0" encoding="iso-8859-1"?>
<!-- Generator: Adobe Illustrator 19.0.0, SVG Export Plug-In . SVG Version: 6.00 Build 0)  -->
<svg xmlns="http://www.w3.org/2000/svg" xmlns:xlink="http://www.w3.org/1999/xlink" version="1.1" id="Capa_1" x="0px" y="0px" viewBox="0 0 512.011 512.011" style="enable-background:new 0 0 512.011 512.011;" xml:space="preserve" width="512" height="512">
<g>
	<path style="fill:#4D3D36;" d="M120.011,241.006l-60,120l60,120c66.274,0,120-53.726,120-120   C240.011,294.731,186.286,241.006,120.011,241.006z"/>
	<path style="fill:#604A43;" d="M0.011,361.006c0,66.274,53.726,120,120,120v-240C53.737,241.006,0.011,294.731,0.011,361.006z"/>
	<polygon style="fill:#BAF7FF;" points="242.011,46.006 75.011,46.006 75.011,202.249 302.011,196.006  "/>
	<polygon style="fill:#9BC135;" points="60.011,31.006 60.011,202.248 220.011,202.248 120.011,31.006  "/>
	<polygon style="fill:#7FAB0D;" points="253.511,31.006 120.011,31.006 120.011,202.248 320.564,202.249  "/>
	<polygon style="fill:#FFFFFF;" points="90.011,61.006 90.011,202.248 180.011,202.248 120.011,61.006  "/>
	<polygon style="fill:#BAF7FF;" points="233.04,61.006 120.011,61.006 120.011,202.248 288.347,202.249  "/>
	<path style="fill:#FDC54E;" d="M120.011,301.006l-30,60l30,60c33.137,0,60-26.863,60-60   C180.011,327.869,153.148,301.006,120.011,301.006z"/>
	<path style="fill:#FCDB5A;" d="M60.011,361.006c0,33.137,26.863,60,60,60v-120C86.874,301.006,60.011,327.869,60.011,361.006z"/>
	<rect x="347.012" y="76.006" style="fill:#7D9062;" width="30" height="120"/>
	<path style="fill:#5D734F;" d="M278.774,316.006c4.062,14.31,6.238,29.406,6.238,45c0,12.895-1.489,25.449-4.3,37.5l201.301,0   v-82.5l-101.619-60L278.774,316.006z"/>
	<path style="fill:#7FAB0D;" d="M482.012,241.006c0-33.084-26.916-60-60-60h-302v15c75.387,0,139.127,50.82,158.762,120h203.238   V241.006z"/>
	<path style="fill:#555843;" d="M298.607,383.506c0.934-7.449,1.404-14.969,1.404-22.5c0-99.252-80.748-180-180-180l-20,15l20,15   c82.71,0,150,67.29,150,150c0,11.505-1.315,22.976-3.908,34.092l-4.295,18.408h100.203v-30H298.607z"/>
	<path style="fill:#5D734F;" d="M120.011,181.006c-44.326,0-86.947,16.317-120.011,45.947l20.021,22.342   c27.554-24.691,63.064-38.289,99.991-38.289V181.006z"/>
	<circle style="fill:#4D3D36;" cx="429.511" cy="398.506" r="82.5"/>
	<circle style="fill:#FDC54E;" cx="429.511" cy="398.506" r="52.5"/>
</g>















</svg>
